<svg width="175" height="202" viewBox="0 0 175 202" fill="none" xmlns="http://www.w3.org/2000/svg">
<g opacity="0.2">
<rect y="19" width="3" height="3" fill="black"/>
<rect x="22" y="19" width="3" height="3" fill="black"/>
<rect x="40" y="19" width="3" height="3" fill="black"/>
<rect x="59" y="19" width="3" height="3" fill="black"/>
<rect x="78" y="19" width="3" height="3" fill="black"/>
<rect x="97" y="19" width="3" height="3" fill="black"/>
<rect x="115" y="19" width="3" height="3" fill="black"/>
<rect x="134" y="19" width="3" height="3" fill="black"/>
<rect x="153" y="19" width="3" height="3" fill="black"/>
<rect x="172" y="19" width="3" height="3" fill="black"/>
<rect y="37" width="3" height="3" fill="black"/>
<rect x="22" y="37" width="3" height="3" fill="black"/>
<rect x="40" y="37" width="3" height="3" fill="black"/>
<rect x="59" y="37" width="3" height="3" fill="black"/>
<rect x="78" y="37" width="3" height="3" fill="black"/>
<rect x="97" y="37" width="3" height="3" fill="black"/>
<rect x="115" y="37" width="3" height="3" fill="black"/>
<rect x="134" y="37" width="3" height="3" fill="black"/>
<rect x="153" y="37" width="3" height="3" fill="black"/>
<rect x="172" y="37" width="3" height="3" fill="black"/>
<rect y="55" width="3" height="3" fill="black"/>
<rect x="22" y="55" width="3" height="3" fill="black"/>
<rect x="40" y="55" width="3" height="3" fill="black"/>
<rect x="59" y="55" width="3" height="3" fill="black"/>
<rect x="78" y="55" width="3" height="3" fill="black"/>
<rect x="97" y="55" width="3" height="3" fill="black"/>
<rect x="115" y="55" width="3" height="3" fill="black"/>
<rect x="134" y="55" width="3" height="3" fill="black"/>
<rect x="153" y="55" width="3" height="3" fill="black"/>
<rect x="172" y="55" width="3" height="3" fill="black"/>
<rect y="73" width="3" height="3" fill="black"/>
<rect x="22" y="73" width="3" height="3" fill="black"/>
<rect x="40" y="73" width="3" height="3" fill="black"/>
<rect x="59" y="73" width="3" height="3" fill="black"/>
<rect x="78" y="73" width="3" height="3" fill="black"/>
<rect x="97" y="73" width="3" height="3" fill="black"/>
<rect x="115" y="73" width="3" height="3" fill="black"/>
<rect x="134" y="73" width="3" height="3" fill="black"/>
<rect x="153" y="73" width="3" height="3" fill="black"/>
<rect x="172" y="73" width="3" height="3" fill="black"/>
<rect y="91" width="3" height="3" fill="black"/>
<rect x="22" y="91" width="3" height="3" fill="black"/>
<rect x="40" y="91" width="3" height="3" fill="black"/>
<rect x="59" y="91" width="3" height="3" fill="black"/>
<rect x="78" y="91" width="3" height="3" fill="black"/>
<rect x="97" y="91" width="3" height="3" fill="black"/>
<rect x="115" y="91" width="3" height="3" fill="black"/>
<rect x="134" y="91" width="3" height="3" fill="black"/>
<rect x="153" y="91" width="3" height="3" fill="black"/>
<rect x="172" y="91" width="3" height="3" fill="black"/>
<rect y="109" width="3" height="3" fill="black"/>
<rect x="22" y="109" width="3" height="3" fill="black"/>
<rect x="40" y="109" width="3" height="3" fill="black"/>
<rect x="59" y="109" width="3" height="3" fill="black"/>
<rect x="78" y="109" width="3" height="3" fill="black"/>
<rect x="97" y="109" width="3" height="3" fill="black"/>
<rect x="115" y="109" width="3" height="3" fill="black"/>
<rect x="134" y="109" width="3" height="3" fill="black"/>
<rect x="153" y="109" width="3" height="3" fill="black"/>
<rect x="172" y="109" width="3" height="3" fill="black"/>
<rect y="127" width="3" height="3" fill="black"/>
<rect x="22" y="127" width="3" height="3" fill="black"/>
<rect x="40" y="127" width="3" height="3" fill="black"/>
<rect x="59" y="127" width="3" height="3" fill="black"/>
<rect x="78" y="127" width="3" height="3" fill="black"/>
<rect x="97" y="127" width="3" height="3" fill="black"/>
<rect x="115" y="127" width="3" height="3" fill="black"/>
<rect x="134" y="127" width="3" height="3" fill="black"/>
<rect x="153" y="127" width="3" height="3" fill="black"/>
<rect x="172" y="127" width="3" height="3" fill="black"/>
<rect y="145" width="3" height="3" fill="black"/>
<rect x="22" y="145" width="3" height="3" fill="black"/>
<rect x="40" y="145" width="3" height="3" fill="black"/>
<rect x="59" y="145" width="3" height="3" fill="black"/>
<rect x="78" y="145" width="3" height="3" fill="black"/>
<rect x="97" y="145" width="3" height="3" fill="black"/>
<rect x="115" y="145" width="3" height="3" fill="black"/>
<rect x="134" y="145" width="3" height="3" fill="black"/>
<rect x="153" y="145" width="3" height="3" fill="black"/>
<rect x="172" y="145" width="3" height="3" fill="black"/>
<rect y="163" width="3" height="3" fill="black"/>
<rect x="22" y="163" width="3" height="3" fill="black"/>
<rect x="40" y="163" width="3" height="3" fill="black"/>
<rect x="59" y="163" width="3" height="3" fill="black"/>
<rect x="78" y="163" width="3" height="3" fill="black"/>
<rect x="97" y="163" width="3" height="3" fill="black"/>
<rect x="115" y="163" width="3" height="3" fill="black"/>
<rect x="134" y="163" width="3" height="3" fill="black"/>
<rect x="153" y="163" width="3" height="3" fill="black"/>
<rect x="172" y="163" width="3" height="3" fill="black"/>
<rect y="181" width="3" height="3" fill="black"/>
<rect x="22" y="181" width="3" height="3" fill="black"/>
<rect x="40" y="181" width="3" height="3" fill="black"/>
<rect x="59" y="181" width="3" height="3" fill="black"/>
<rect x="78" y="181" width="3" height="3" fill="black"/>
<rect x="97" y="181" width="3" height="3" fill="black"/>
<rect x="115" y="181" width="3" height="3" fill="black"/>
<rect x="134" y="181" width="3" height="3" fill="black"/>
<rect x="153" y="181" width="3" height="3" fill="black"/>
<rect x="172" y="181" width="3" height="3" fill="black"/>
<rect y="199" width="3" height="3" fill="black"/>
<rect x="22" y="199" width="3" height="3" fill="black"/>
<rect x="40" y="199" width="3" height="3" fill="black"/>
<rect x="59" y="199" width="3" height="3" fill="black"/>
<rect x="78" y="199" width="3" height="3" fill="black"/>
<rect x="97" y="199" width="3" height="3" fill="black"/>
<rect x="115" y="199" width="3" height="3" fill="black"/>
<rect x="134" y="199" width="3" height="3" fill="black"/>
<rect x="153" y="199" width="3" height="3" fill="black"/>
<rect x="172" y="199" width="3" height="3" fill="black"/>
<rect width="3" height="3" fill="black"/>
<rect x="22" width="3" height="3" fill="black"/>
<rect x="40" width="3" height="3" fill="black"/>
<rect x="59" width="3" height="3" fill="black"/>
<rect x="78" width="3" height="3" fill="black"/>
<rect x="97" width="3" height="3" fill="black"/>
<rect x="115" width="3" height="3" fill="black"/>
<rect x="134" width="3" height="3" fill="black"/>
<rect x="153" width="3" height="3" fill="black"/>
<rect x="172" width="3" height="3" fill="black"/>
</g>
</svg>
